<svg xmlns:xlink="http://www.w3.org/1999/xlink" xmlns="http://www.w3.org/2000/svg" viewBox="0 0 179 52" width="179" height="52" preserveAspectRatio="xMidYMid meet" style="width: 100%; height: 100%; transform: translate3d(0px, 0px, 0px);"><defs><clipPath id="__lottie_element_3"><rect width="179" height="52" x="0" y="0"></rect></clipPath></defs><g clip-path="url(#__lottie_element_3)"><g transform="matrix(0.23800000548362732,0,0,0.23800000548362732,2.8979568481445312,4.128000259399414)" opacity="1" style="display: block;"><g opacity="1" transform="matrix(1,0,0,1,91.69999694824219,93.7249984741211)"><path fill="rgb(0,0,0)" fill-opacity="1" d=" M46.54999923706055,-93.4749984741211 C46.54999923706055,-93.4749984741211 46.54999923706055,22.975000381469727 46.54999923706055,22.975000381469727 C46.54999923706055,22.975000381469727 -46.50899887084961,-93.4749984741211 -46.50899887084961,-93.4749984741211 C-46.50899887084961,-93.4749984741211 -91.44999694824219,-93.4749984741211 -91.44999694824219,-93.4749984741211 C-91.44999694824219,-93.4749984741211 -91.44999694824219,93.4749984741211 -91.44999694824219,93.4749984741211 C-91.44999694824219,93.4749984741211 -46.54999923706055,93.4749984741211 -46.54999923706055,93.4749984741211 C-46.54999923706055,93.4749984741211 -46.54999923706055,-18.424999237060547 -46.54999923706055,-18.424999237060547 C-46.54999923706055,-18.424999237060547 46.54999923706055,93.375 46.54999923706055,93.375 C46.54999923706055,93.375 91.44999694824219,93.375 91.44999694824219,93.375 C91.44999694824219,93.375 91.44999694824219,-93.4749984741211 91.44999694824219,-93.4749984741211 C91.44999694824219,-93.4749984741211 46.54999923706055,-93.4749984741211 46.54999923706055,-93.4749984741211z"></path></g></g><g transform="matrix(0.23800000548362732,0,0,0.23800000548362732,54.448997497558594,4.128000259399414)" opacity="1" style="display: block;"><g opacity="1" transform="matrix(1,0,0,1,102,93.69999694824219)"><path fill="rgb(0,0,0)" fill-opacity="1" d=" M-6.050000190734863,-28.75 C-6.050000190734863,-28.75 21.850000381469727,31.350000381469727 21.850000381469727,31.350000381469727 C21.850000381469727,31.350000381469727 -32.54999923706055,31.350000381469727 -32.54999923706055,31.350000381469727 C-32.54999923706055,31.350000381469727 -6.050000190734863,-28.75 -6.050000190734863,-28.75z M-21.549999237060547,-93.44999694824219 C-21.549999237060547,-93.44999694824219 -101.75,67.8499984741211 -101.75,67.8499984741211 C-101.75,67.8499984741211 39.249000549316406,67.8499984741211 39.249000549316406,67.8499984741211 C39.249000549316406,67.8499984741211 51.94900131225586,93.44999694824219 51.94900131225586,93.44999694824219 C51.94900131225586,93.44999694824219 101.75,93.44999694824219 101.75,93.44999694824219 C101.75,93.44999694824219 12.348999977111816,-93.44999694824219 12.348999977111816,-93.44999694824219 C12.348999977111816,-93.44999694824219 -21.549999237060547,-93.44999694824219 -21.549999237060547,-93.44999694824219z"></path></g></g><g transform="matrix(0.23800000548362732,0,0,0.23800000548362732,105.78559875488281,4.080400466918945)" opacity="1" style="display: block;"><g opacity="1" transform="matrix(1,0,0,1,93.05000305175781,94)"><path fill="rgb(0,0,0)" fill-opacity="1" d=" M92.80000305175781,-93.75 C92.80000305175781,-93.75 92.80000305175781,-4.150000095367432 92.80000305175781,-4.150000095367432 C92.80000305175781,54.54999923706055 51.79999923706055,93.55000305175781 0.10000000149011612,93.55000305175781 C-51.79999923706055,93.55000305175781 -92.80000305175781,54.54999923706055 -92.80000305175781,-4.150000095367432 C-92.80000305175781,-4.150000095367432 -92.80000305175781,-93.75 -92.80000305175781,-93.75 C-92.80000305175781,-93.75 -48.20000076293945,-93.75 -48.20000076293945,-93.75 C-48.20000076293945,-93.75 -48.20000076293945,-4.150000095367432 -48.20000076293945,-4.150000095367432 C-48.20000076293945,24.450000762939453 -28,48.349998474121094 0.10000000149011612,48.349998474121094 C27.899999618530273,48.349998474121094 48.099998474121094,24.450000762939453 48.099998474121094,-4.150000095367432 C48.099998474121094,-4.150000095367432 48.099998474121094,-93.75 48.099998474121094,-93.75 C48.099998474121094,-93.75 92.80000305175781,-93.75 92.80000305175781,-93.75z"></path></g></g><g transform="matrix(0.23800000548362732,0,0,0.23800000548362732,155.48001098632812,43.89780044555664)" opacity="1" style="display: block;"><g opacity="1" transform="matrix(1,0,0,1,41.599998474121094,10.350000381469727)"><path fill="rgb(0,0,0)" fill-opacity="1" d=" M-41.349998474121094,10.100000381469727 C-41.349998474121094,10.100000381469727 41.349998474121094,10.100000381469727 41.349998474121094,10.100000381469727 C41.349998474121094,10.100000381469727 41.349998474121094,-10.100000381469727 41.349998474121094,-10.100000381469727 C41.349998474121094,-10.100000381469727 -41.349998474121094,-10.100000381469727 -41.349998474121094,-10.100000381469727 C-41.349998474121094,-10.100000381469727 -41.349998474121094,10.100000381469727 -41.349998474121094,10.100000381469727z"></path></g></g></g></svg>